<?xml version="1.0" encoding="UTF-8" standalone="no"?>
<!DOCTYPE svg PUBLIC "-//W3C//DTD SVG 1.1//EN" "http://www.w3.org/Graphics/SVG/1.1/DTD/svg11.dtd">
<svg width="100%" height="100%" viewBox="0 0 1700 415" version="1.1" xmlns="http://www.w3.org/2000/svg" xmlns:xlink="http://www.w3.org/1999/xlink" xml:space="preserve" xmlns:serif="http://www.serif.com/" style="fill-rule:evenodd;clip-rule:evenodd;stroke-linejoin:round;stroke-miterlimit:2;">
    <g>
        <path d="M34.679,70.216C34.835,65.959 39.218,64.032 46.416,64.032C52.185,64.032 70.125,68.813 70.125,82.807C70.125,84.971 68.09,89.079 66.052,89.079C64.015,89.079 61.861,89.055 60.734,87.412C57.956,83.36 56.592,78.353 46.416,78.353C44.071,78.353 40.394,78.078 38.569,76.813C36.613,75.457 34.529,74.327 34.679,70.216Z" style="fill:url(#_Linear1);"/>
        <path d="M34.21,286.043C37.535,288.706 36.47,293.374 32.179,299.153C28.74,303.786 14.206,315.339 2.971,306.998C1.233,305.707 -0.852,301.625 0.363,299.988C1.577,298.352 2.881,296.637 4.872,296.712C9.781,296.897 14.614,298.786 20.68,290.616C22.078,288.733 24.491,285.945 26.594,285.234C28.849,284.472 30.999,283.472 34.21,286.043Z" style="fill:url(#_Linear2);"/>
        <path d="M365.234,99.625C367.48,97.378 367.48,93.73 365.234,91.484C362.987,89.237 359.339,89.237 357.093,91.484L352.44,96.136C350.194,98.383 350.194,102.031 352.44,104.277C354.687,106.524 358.335,106.524 360.582,104.277L365.234,99.625Z" style="fill:url(#_Linear3);"/>
        <path d="M344.587,120.272C346.834,118.025 346.834,114.377 344.587,112.131C342.34,109.884 338.692,109.884 336.446,112.131L331.793,116.783C329.547,119.03 329.547,122.677 331.793,124.924C334.04,127.171 337.688,127.171 339.935,124.924L344.587,120.272Z" style="fill:url(#_Linear4);"/>
        <path d="M357.093,124.924C359.339,127.171 362.987,127.171 365.234,124.924C367.48,122.677 367.48,119.03 365.234,116.783L360.582,112.131C358.335,109.884 354.687,109.884 352.44,112.131C350.194,114.377 350.194,118.025 352.44,120.272L357.093,124.924Z" style="fill:url(#_Linear5);"/>
        <path d="M336.446,104.277C338.692,106.524 342.34,106.524 344.587,104.277C346.834,102.031 346.834,98.383 344.587,96.136L339.935,91.484C337.688,89.237 334.04,89.237 331.793,91.484C329.547,93.73 329.547,97.378 331.793,99.625L336.446,104.277Z" style="fill:url(#_Linear6);"/>
        <circle cx="427.399" cy="293.45" r="11.511" style="fill:url(#_Linear7);"/>
        <circle cx="130.639" cy="132.347" r="6.093" style="fill:url(#_Linear8);"/>
        <path d="M140.954,88.034C134.94,88.369 130.022,89.588 126.176,91.025C126.159,90.822 126.151,90.617 126.151,90.41L126.151,64.093C126.151,60.008 129.467,56.692 133.552,56.692C137.637,56.692 140.954,60.008 140.954,64.093L140.954,88.034Z" style="fill:url(#_Linear9);"/>
        <path d="M164.849,92.895C159.366,90.136 154.467,88.695 150.826,87.943L150.826,87.121C152.942,87.121 154.016,87.121 150.826,87.121L150.826,64.093C150.826,60.008 154.142,56.692 158.227,56.692C162.312,56.692 165.629,60.008 165.629,64.093L165.629,89.588C165.629,90.776 165.348,91.9 164.849,92.895Z" style="fill:url(#_Linear10);"/>
        <path d="M101.479,132.352C101.479,132.352 110.634,99.456 145.888,99.456" style="fill:url(#_Linear11);"/>
        <path d="M145.888,99.456C152.399,99.456 182.592,105.047 190.297,132.352C192.917,141.637 193.535,158.656 193.587,170.813C193.695,196.402 193.587,217.88 193.587,217.88L98.189,217.88L98.189,204.722C98.189,204.722 111.347,194.586 111.347,166.892C111.347,139.198 102.184,133.057 101.479,132.352C101.479,132.352 109.154,99.456 145.888,99.456ZM130.262,122.483C125.27,122.483 121.216,126.537 121.216,131.529C121.216,136.522 125.27,140.576 130.262,140.576C135.255,140.576 139.309,136.522 139.309,131.529C139.309,126.537 135.255,122.483 130.262,122.483Z" style="fill:url(#_Linear12);"/>
        <path d="M98.189,281.63L98.189,229.394L313.656,229.394C313.656,229.394 353.13,229.974 353.13,268.254L353.13,285.097C350.523,287.222 346.77,288.536 341.617,288.433C331.978,288.433 325.169,279.254 325.169,273.629C325.169,268.005 320.783,265.406 318.59,265.406C316.397,265.406 312.011,267.751 312.011,273.629C312.011,281.152 307.625,288.676 295.563,288.433C285.924,288.433 279.115,279.254 279.115,273.629C279.115,268.005 274.729,265.406 272.536,265.406C270.343,265.406 265.957,267.751 265.957,273.629C265.957,281.152 261.571,288.676 249.509,288.433C239.87,288.433 233.061,279.254 233.061,273.629C233.061,268.005 228.675,265.406 226.482,265.406C224.289,265.406 219.903,267.751 219.903,273.629C219.903,281.152 215.517,288.676 203.455,288.433C193.816,288.433 187.007,279.254 187.007,273.629C187.007,268.005 182.621,265.406 180.428,265.406C178.235,265.406 173.849,267.751 173.849,273.629C173.849,281.152 169.463,288.676 157.401,288.433C147.762,288.433 140.954,279.254 140.954,273.629C140.954,268.005 136.567,265.406 134.374,265.406C132.181,265.406 127.795,267.751 127.795,273.629C127.795,281.152 123.409,288.676 111.347,288.433C105.745,288.433 101.098,285.332 98.189,281.63ZM353.13,295.493L353.13,345.799C350.026,342.747 348.196,338.877 348.196,335.961C348.196,330.337 343.81,327.737 341.617,327.737C339.424,327.737 335.038,330.083 335.038,335.961C335.038,343.484 330.652,351.007 318.59,350.764C308.951,350.764 302.142,341.586 302.142,335.961C302.142,330.337 297.756,327.737 295.563,327.737C293.37,327.737 288.984,330.083 288.984,335.961C288.984,343.484 284.598,351.007 272.536,350.764C262.897,350.764 256.088,341.586 256.088,335.961C256.088,330.337 251.702,327.737 249.509,327.737C247.316,327.737 242.93,330.083 242.93,335.961C242.93,343.484 238.544,351.007 226.482,350.764C216.843,350.764 210.034,341.586 210.034,335.961C210.034,330.337 205.648,327.737 203.455,327.737C201.262,327.737 196.876,330.083 196.876,335.961C196.876,343.484 192.49,351.007 180.428,350.764C170.789,350.764 163.981,341.586 163.981,335.961C163.981,330.337 159.594,327.737 157.401,327.737C155.208,327.737 150.822,330.083 150.822,335.961C150.822,343.484 146.436,351.007 134.374,350.764C124.735,350.764 117.927,341.586 117.927,335.961C117.927,330.337 113.541,327.737 111.347,327.737C109.154,327.737 104.768,330.083 104.768,335.961C104.768,340.892 102.884,345.823 98.189,348.567L98.189,294.723C104.626,297.929 111.347,298.301 111.347,298.301C126.327,298.301 134.374,285.143 134.374,285.143C139.989,297.337 157.401,298.301 157.401,298.301C172.381,298.301 180.428,285.143 180.428,285.143C186.043,297.337 203.455,298.301 203.455,298.301C218.435,298.301 226.482,285.143 226.482,285.143C232.097,297.337 249.509,298.301 249.509,298.301C264.489,298.301 272.536,285.143 272.536,285.143C278.151,297.337 295.563,298.301 295.563,298.301C310.543,298.301 318.59,285.143 318.59,285.143C324.205,297.337 341.617,298.301 341.617,298.301C346.08,298.301 349.928,297.133 353.13,295.493ZM353.13,357.813L353.13,375.779C353.13,375.779 353.395,390.583 337.402,390.583L315.3,390.583C315.3,390.583 300.497,389.591 300.497,375.779L300.497,353.857C307.828,360.037 318.59,360.633 318.59,360.633C333.57,360.633 341.617,347.475 341.617,347.475C344.04,352.737 348.661,355.908 353.13,357.813ZM152.467,353.206L152.467,375.779C152.467,375.779 152.144,390.583 136.019,390.583L112.992,390.583C112.992,390.583 98.189,389.858 98.189,375.779L98.189,358.598C106.804,354.904 111.347,347.475 111.347,347.475C116.962,359.669 134.374,360.633 134.374,360.633C142.509,360.633 148.6,356.752 152.467,353.206Z" style="fill:url(#_Linear13);"/>
        <path d="M240.58,222.815C240.58,222.815 240.596,23.387 240.593,23.186C240.437,12.602 237.465,9.253 231.33,9.253L229.313,9.253L229.313,7.892C242.805,8.164 249.614,6.395 252.64,0L253.397,0.272C252.514,3.81 252.117,17.571 252.01,22.179C251.997,22.719 252.093,222.815 252.093,222.815L240.58,222.815Z" style="fill:url(#_Linear14);"/>
        <path d="M351.675,235.033C348.137,232.662 348.803,227.92 352.589,221.798C355.623,216.892 369.126,204.149 381.027,211.509C382.869,212.647 385.292,216.539 384.22,218.272C383.148,220.005 381.995,221.825 380.004,221.919C375.097,222.15 370.122,220.677 364.769,229.331C363.536,231.326 361.368,234.308 359.332,235.195C357.15,236.145 355.093,237.324 351.675,235.033Z" style="fill:url(#_Linear15);"/>
        <path d="M1641.65,290.144C1641.65,286.967 1639.07,284.387 1635.89,284.387C1632.72,284.387 1630.14,286.967 1630.14,290.144L1630.14,296.723C1630.14,299.901 1632.72,302.48 1635.89,302.48C1639.07,302.48 1641.65,299.901 1641.65,296.723L1641.65,290.144Z" style="fill:url(#_Linear16);"/>
        <path d="M1641.65,319.343C1641.65,316.166 1639.07,313.587 1635.89,313.587C1632.72,313.587 1630.14,316.166 1630.14,319.343L1630.14,325.922C1630.14,329.1 1632.72,331.679 1635.89,331.679C1639.07,331.679 1641.65,329.1 1641.65,325.922L1641.65,319.343Z" style="fill:url(#_Linear17);"/>
        <path d="M1653.79,313.79C1656.97,313.79 1659.55,311.211 1659.55,308.033C1659.55,304.856 1656.97,302.277 1653.79,302.277L1647.21,302.277C1644.03,302.277 1641.45,304.856 1641.45,308.033C1641.45,311.211 1644.03,313.79 1647.21,313.79L1653.79,313.79Z" style="fill:url(#_Linear18);"/>
        <path d="M1624.59,313.79C1627.77,313.79 1630.35,311.211 1630.35,308.033C1630.35,304.856 1627.77,302.277 1624.59,302.277L1618.01,302.277C1614.83,302.277 1612.25,304.856 1612.25,308.033C1612.25,311.211 1614.83,313.79 1618.01,313.79L1624.59,313.79Z" style="fill:url(#_Linear19);"/>
        <path d="M93.255,140.576C102.029,140.576 102.46,157.656 102.46,166.43C102.46,175.203 102.269,194.661 91.831,194.661L60.359,194.661C60.359,194.661 45.556,194.438 45.556,179.858L45.556,155.379C45.556,140.799 60.359,140.576 60.359,140.576L93.255,140.576ZM57.382,150.112C55.517,150.112 54.003,151.625 54.003,153.49C54.003,155.355 55.517,156.868 57.382,156.868C59.246,156.868 60.76,155.355 60.76,153.49C60.76,151.625 59.246,150.112 57.382,150.112Z" style="fill:url(#_Linear20);"/>
        <g transform="matrix(1,0,0,1,-222.252,-9.56775)">
            <path d="M1157.32,90.76L1171.27,100.943L1187.81,95.998L1182.44,112.409L1192.25,126.616L1174.98,126.575L1164.51,140.3L1159.21,123.865L1142.92,118.14L1156.91,108.023L1157.32,90.76Z" style="fill:url(#_Linear21);"/>
        </g>
        <path d="M553.168,414.59C619.838,414.59 656.236,391.362 656.236,354.907C656.236,315.226 602.9,309.096 557.853,303.612C525.058,299.741 496.949,296.192 496.949,280.707C496.949,273.287 504.517,267.802 512.085,262.64C523.977,268.125 538.753,270.383 558.574,270.383C601.819,270.383 630.649,259.092 630.649,216.185C630.649,179.407 605.783,167.47 560.736,167.148C560.375,164.567 560.375,162.631 560.375,160.373C560.375,131.983 579.836,123.273 590.287,123.273C602.54,123.273 606.144,129.08 606.144,135.854C606.144,142.952 602.54,151.017 599.296,156.502C603.981,161.341 610.828,163.599 617.676,163.599C629.568,163.599 641.1,157.147 641.1,142.952C641.1,127.467 627.766,115.53 604.342,115.53C581.998,115.53 556.411,126.499 556.411,159.082C556.411,161.663 556.411,164.244 556.772,167.148C511.724,167.47 486.498,179.407 486.498,216.507C486.498,239.735 494.786,253.285 509.562,261.35C492.985,270.706 481.452,285.223 481.452,300.063C481.452,313.613 486.858,324.904 507.039,330.066C476.047,338.454 469.2,354.907 469.2,369.747C469.2,390.394 494.426,414.59 553.168,414.59ZM552.447,411.364C513.526,411.364 473.164,398.137 473.164,369.747C473.164,354.907 482.173,338.131 512.085,331.357C522.896,333.615 535.87,334.905 549.564,336.518C560.736,337.809 572.989,339.099 583.44,341.035C609.387,345.551 631.73,353.617 631.73,373.296C631.73,395.556 611.549,411.364 552.447,411.364ZM558.574,267.157C523.617,267.157 527.941,245.865 527.941,213.926C527.941,185.537 521.094,170.374 558.574,170.374C598.215,170.374 589.206,185.214 589.206,213.926C589.206,245.22 594.611,267.157 558.574,267.157Z" style="fill:url(#_Linear22);fill-rule:nonzero;"/>
        <path d="M660.2,331.679L756.061,331.679L756.061,328.453L750.295,328.453C733.357,328.453 727.231,323.937 727.231,309.096L727.231,132.306C727.231,111.981 728.672,88.753 731.195,80.365L729.033,79.72C720.384,94.883 700.923,99.077 662.363,98.432L662.363,101.658L668.129,101.658C686.148,101.658 691.193,110.046 691.193,136.822L691.193,310.064C691.193,323.937 685.427,328.453 665.966,328.453L660.2,328.453L660.2,331.679Z" style="fill:url(#_Linear23);fill-rule:nonzero;"/>
        <path d="M857.688,334.905C895.528,334.905 922.196,313.613 922.196,277.481C922.196,273.932 922.196,270.061 921.475,266.189C919.313,264.254 914.988,263.931 912.466,266.189C915.349,271.674 916.43,277.481 916.43,283.61C916.43,306.838 896.609,331.679 857.688,331.679C803.631,331.679 818.046,278.126 818.046,246.187L919.313,246.187C922.196,239.413 923.998,231.347 923.998,223.282C923.998,196.505 905.618,167.148 851.922,167.148C814.443,167.148 774.801,191.344 774.801,248.768C774.801,310.709 814.443,334.905 857.688,334.905ZM818.046,242.639C816.965,214.249 805.433,170.374 850.841,170.374C880.392,170.374 886.518,187.472 886.518,205.861C886.518,219.411 883.275,233.606 883.275,242.639L818.046,242.639Z" style="fill:url(#_Linear24);fill-rule:nonzero;"/>
        <path d="M1166.94,260.443C1166.81,260.645 1130.02,320.116 1113.2,331.679C1109.36,334.32 1102.94,335.228 1093.74,335.228C1074.28,335.228 1056.62,323.291 1062.39,292.966L1060.22,292.966C1056.62,323.291 1035,336.518 1009.41,336.518C976.256,336.518 953.191,321.033 953.191,293.611C953.191,261.673 991.031,249.091 1028.15,249.091C1039.32,249.091 1050.49,250.059 1060.58,252.317C1061.66,246.51 1063.11,235.541 1063.11,223.282C1063.11,199.086 1056.98,170.374 1029.23,170.374C1005.09,170.374 997.878,181.988 997.878,194.247C997.878,202.958 1001.48,211.991 1005.81,216.83C997.518,221.669 990.31,223.605 983.824,223.605C971.21,223.605 962.922,215.217 962.922,202.958C962.922,180.697 992.833,167.148 1038.24,167.148C1077.16,167.148 1099.87,187.15 1099.87,226.831C1099.87,242.316 1094.82,276.19 1094.82,300.063C1094.82,321.356 1097.7,328.497 1105.63,328.453C1116.3,328.394 1152.07,272.521 1159.86,260.289C1162.07,256.811 1164.37,250.865 1164.37,249.063L1164.37,210.7C1164.37,183.923 1159.33,175.536 1141.31,175.536L1135.54,175.536L1135.54,172.309C1188.52,172.309 1196.81,172.309 1204.74,160.05L1206.9,160.696C1203.03,170.788 1199.74,187.066 1198.32,206.766C1212.63,185.255 1222.95,165.535 1257.35,165.535C1287.98,165.535 1307.44,179.407 1308.88,204.571L1310.69,204.571C1317.89,184.569 1333.03,165.535 1364.38,165.535C1397.9,165.535 1420.24,176.181 1420.24,220.056L1420.24,309.096C1420.24,323.937 1426.37,328.453 1441.87,328.453L1447.27,328.453L1447.27,331.679L1355.37,331.679L1355.37,328.453L1358.98,328.453C1378.44,328.453 1384.2,323.937 1384.2,310.064L1384.2,230.057C1384.2,201.344 1382.4,170.374 1356.82,170.374C1334.47,170.374 1310.33,192.311 1310.33,234.251L1310.33,309.096C1310.33,323.937 1316.45,328.453 1335.55,328.453L1339.16,328.453L1339.16,331.679L1245.46,331.679L1245.46,328.453L1249.06,328.453C1268.52,328.453 1274.29,323.937 1274.29,310.064L1274.29,230.057C1274.29,190.698 1270.33,170.374 1246.54,170.374C1237.92,170.374 1226.58,179.419 1217.27,189.838C1207.39,199.719 1176.13,246.556 1166.94,260.443ZM1022.02,328.453C1048.33,328.453 1060.22,304.257 1060.22,256.188C1050.85,253.93 1042.57,252.64 1035,252.64C1007.97,252.64 992.833,267.157 992.833,290.708C992.833,311.355 1004,328.453 1022.02,328.453ZM1200.24,226.491C1200.31,232.256 1200.41,238.438 1200.41,242.576L1200.41,309.096C1200.41,323.937 1206.54,328.453 1225.64,328.453L1229.24,328.453L1229.24,331.679L1135.54,331.679L1135.54,328.453L1139.15,328.453C1158.61,328.453 1164.37,323.937 1164.37,310.064L1164.37,278.893C1171.19,268.897 1193.47,236.243 1200.24,226.491Z" style="fill:url(#_Linear25);"/>
        <path d="M1585.89,220.834C1585.89,220.834 1598.98,170.211 1632.9,173.831C1658.21,176.531 1690.2,203.065 1699.46,164.027C1699.46,164.027 1701.8,208.931 1671.12,211.723C1661.16,212.63 1651.75,210.739 1641.1,205.918C1635.32,203.299 1633.69,201.217 1622.84,200.067C1613.58,199.086 1603.25,199.278 1585.89,220.834Z" style="fill:url(#_Linear26);"/>
        <path d="M1584.87,234.968C1583.89,236.895 1582.73,239.387 1581.46,242.259L1570.49,268.791C1569.09,272.31 1567.72,275.742 1566.45,278.921L1547.63,324.098L1542.76,335.873C1549.61,350.068 1554.3,365.231 1554.3,378.458C1554.3,398.782 1543.85,414.59 1517.18,414.59C1497.72,414.59 1482.58,402.976 1482.58,383.297C1482.58,372.328 1489.43,358.456 1506.01,358.456C1509.61,358.456 1514.29,359.101 1518.98,360.714L1519.7,362.972C1517.54,371.038 1516.1,378.78 1516.1,385.555C1516.1,396.847 1519.7,405.234 1529.43,405.234C1541.68,405.234 1549.61,394.588 1549.61,377.167C1549.61,366.199 1546.37,352.649 1538.8,337.164L1471.05,201.022C1463.48,185.859 1458.08,175.536 1439.34,175.536L1435.37,175.536L1435.37,172.309L1542.76,172.309L1542.76,175.536L1531.95,175.536C1511.77,175.536 1506.73,187.472 1512.49,200.699L1553.58,294.256L1555.38,294.256C1555.38,294.256 1567.64,264.728 1570.6,257.712C1571.38,255.84 1572.11,253.928 1573.11,252.162C1579.86,240.278 1581.18,240.357 1584.87,234.968Z" style="fill:url(#_Linear27);"/>
    </g>
    <defs>
        <linearGradient id="_Linear1" x1="0" y1="0" x2="1" y2="0" gradientUnits="userSpaceOnUse" gradientTransform="matrix(1699.5,414.59,-414.59,1699.5,-2.27374e-13,-1.13687e-13)"><stop offset="0" style="stop-color:rgb(228,62,150);stop-opacity:1"/><stop offset="1" style="stop-color:rgb(70,167,222);stop-opacity:1"/></linearGradient>
        <linearGradient id="_Linear2" x1="0" y1="0" x2="1" y2="0" gradientUnits="userSpaceOnUse" gradientTransform="matrix(1699.5,414.59,-414.59,1699.5,0,0)"><stop offset="0" style="stop-color:rgb(228,62,150);stop-opacity:1"/><stop offset="1" style="stop-color:rgb(70,167,222);stop-opacity:1"/></linearGradient>
        <linearGradient id="_Linear3" x1="0" y1="0" x2="1" y2="0" gradientUnits="userSpaceOnUse" gradientTransform="matrix(1699.5,414.59,-414.59,1699.5,5.68434e-14,0)"><stop offset="0" style="stop-color:rgb(228,62,150);stop-opacity:1"/><stop offset="1" style="stop-color:rgb(70,167,222);stop-opacity:1"/></linearGradient>
        <linearGradient id="_Linear4" x1="0" y1="0" x2="1" y2="0" gradientUnits="userSpaceOnUse" gradientTransform="matrix(1699.5,414.59,-414.59,1699.5,-8.52651e-14,0)"><stop offset="0" style="stop-color:rgb(228,62,150);stop-opacity:1"/><stop offset="1" style="stop-color:rgb(70,167,222);stop-opacity:1"/></linearGradient>
        <linearGradient id="_Linear5" x1="0" y1="0" x2="1" y2="0" gradientUnits="userSpaceOnUse" gradientTransform="matrix(1699.5,414.59,-414.59,1699.5,0,0)"><stop offset="0" style="stop-color:rgb(228,62,150);stop-opacity:1"/><stop offset="1" style="stop-color:rgb(70,167,222);stop-opacity:1"/></linearGradient>
        <linearGradient id="_Linear6" x1="0" y1="0" x2="1" y2="0" gradientUnits="userSpaceOnUse" gradientTransform="matrix(1699.5,414.59,-414.59,1699.5,-2.27374e-13,-1.13687e-13)"><stop offset="0" style="stop-color:rgb(228,62,150);stop-opacity:1"/><stop offset="1" style="stop-color:rgb(70,167,222);stop-opacity:1"/></linearGradient>
        <linearGradient id="_Linear7" x1="0" y1="0" x2="1" y2="0" gradientUnits="userSpaceOnUse" gradientTransform="matrix(1699.5,414.59,-414.59,1699.5,-2.27374e-13,-2.27374e-13)"><stop offset="0" style="stop-color:rgb(228,62,150);stop-opacity:1"/><stop offset="1" style="stop-color:rgb(70,167,222);stop-opacity:1"/></linearGradient>
        <linearGradient id="_Linear8" x1="0" y1="0" x2="1" y2="0" gradientUnits="userSpaceOnUse" gradientTransform="matrix(1699.5,414.59,-414.59,1699.5,-2.27374e-13,-1.13687e-13)"><stop offset="0" style="stop-color:rgb(228,62,150);stop-opacity:1"/><stop offset="1" style="stop-color:rgb(70,167,222);stop-opacity:1"/></linearGradient>
        <linearGradient id="_Linear9" x1="0" y1="0" x2="1" y2="0" gradientUnits="userSpaceOnUse" gradientTransform="matrix(1699.5,414.59,-414.59,1699.5,-2.27374e-13,0)"><stop offset="0" style="stop-color:rgb(228,62,150);stop-opacity:1"/><stop offset="1" style="stop-color:rgb(70,167,222);stop-opacity:1"/></linearGradient>
        <linearGradient id="_Linear10" x1="0" y1="0" x2="1" y2="0" gradientUnits="userSpaceOnUse" gradientTransform="matrix(1699.5,414.59,-414.59,1699.5,-2.27374e-13,0)"><stop offset="0" style="stop-color:rgb(228,62,150);stop-opacity:1"/><stop offset="1" style="stop-color:rgb(70,167,222);stop-opacity:1"/></linearGradient>
        <linearGradient id="_Linear11" x1="0" y1="0" x2="1" y2="0" gradientUnits="userSpaceOnUse" gradientTransform="matrix(1699.5,414.59,-414.59,1699.5,-2.27374e-13,0)"><stop offset="0" style="stop-color:rgb(228,62,150);stop-opacity:1"/><stop offset="1" style="stop-color:rgb(70,167,222);stop-opacity:1"/></linearGradient>
        <linearGradient id="_Linear12" x1="0" y1="0" x2="1" y2="0" gradientUnits="userSpaceOnUse" gradientTransform="matrix(1699.5,414.59,-414.59,1699.5,-2.27374e-13,0)"><stop offset="0" style="stop-color:rgb(228,62,150);stop-opacity:1"/><stop offset="1" style="stop-color:rgb(70,167,222);stop-opacity:1"/></linearGradient>
        <linearGradient id="_Linear13" x1="0" y1="0" x2="1" y2="0" gradientUnits="userSpaceOnUse" gradientTransform="matrix(1699.5,414.59,-414.59,1699.5,-2.27374e-13,0)"><stop offset="0" style="stop-color:rgb(228,62,150);stop-opacity:1"/><stop offset="1" style="stop-color:rgb(70,167,222);stop-opacity:1"/></linearGradient>
        <linearGradient id="_Linear14" x1="0" y1="0" x2="1" y2="0" gradientUnits="userSpaceOnUse" gradientTransform="matrix(1699.5,414.59,-414.59,1699.5,-1.42109e-13,0)"><stop offset="0" style="stop-color:rgb(228,62,150);stop-opacity:1"/><stop offset="1" style="stop-color:rgb(70,167,222);stop-opacity:1"/></linearGradient>
        <linearGradient id="_Linear15" x1="0" y1="0" x2="1" y2="0" gradientUnits="userSpaceOnUse" gradientTransform="matrix(1699.5,414.59,-414.59,1699.5,-2.27374e-13,0)"><stop offset="0" style="stop-color:rgb(228,62,150);stop-opacity:1"/><stop offset="1" style="stop-color:rgb(70,167,222);stop-opacity:1"/></linearGradient>
        <linearGradient id="_Linear16" x1="0" y1="0" x2="1" y2="0" gradientUnits="userSpaceOnUse" gradientTransform="matrix(1699.5,414.59,-414.59,1699.5,-1.13687e-13,1.13687e-13)"><stop offset="0" style="stop-color:rgb(228,62,150);stop-opacity:1"/><stop offset="1" style="stop-color:rgb(70,167,222);stop-opacity:1"/></linearGradient>
        <linearGradient id="_Linear17" x1="0" y1="0" x2="1" y2="0" gradientUnits="userSpaceOnUse" gradientTransform="matrix(1699.5,414.59,-414.59,1699.5,-1.13687e-13,5.68434e-14)"><stop offset="0" style="stop-color:rgb(228,62,150);stop-opacity:1"/><stop offset="1" style="stop-color:rgb(70,167,222);stop-opacity:1"/></linearGradient>
        <linearGradient id="_Linear18" x1="0" y1="0" x2="1" y2="0" gradientUnits="userSpaceOnUse" gradientTransform="matrix(1699.5,414.59,-414.59,1699.5,-4.54747e-13,0)"><stop offset="0" style="stop-color:rgb(228,62,150);stop-opacity:1"/><stop offset="1" style="stop-color:rgb(70,167,222);stop-opacity:1"/></linearGradient>
        <linearGradient id="_Linear19" x1="0" y1="0" x2="1" y2="0" gradientUnits="userSpaceOnUse" gradientTransform="matrix(1699.5,414.59,-414.59,1699.5,-4.54747e-13,0)"><stop offset="0" style="stop-color:rgb(228,62,150);stop-opacity:1"/><stop offset="1" style="stop-color:rgb(70,167,222);stop-opacity:1"/></linearGradient>
        <linearGradient id="_Linear20" x1="0" y1="0" x2="1" y2="0" gradientUnits="userSpaceOnUse" gradientTransform="matrix(1699.5,414.59,-414.59,1699.5,-1.42109e-13,0)"><stop offset="0" style="stop-color:rgb(228,62,150);stop-opacity:1"/><stop offset="1" style="stop-color:rgb(70,167,222);stop-opacity:1"/></linearGradient>
        <linearGradient id="_Linear21" x1="0" y1="0" x2="1" y2="0" gradientUnits="userSpaceOnUse" gradientTransform="matrix(1699.5,414.59,-414.59,1699.5,-1.98952e-13,0)"><stop offset="0" style="stop-color:rgb(228,62,150);stop-opacity:1"/><stop offset="1" style="stop-color:rgb(70,167,222);stop-opacity:1"/></linearGradient>
        <linearGradient id="_Linear22" x1="0" y1="0" x2="1" y2="0" gradientUnits="userSpaceOnUse" gradientTransform="matrix(1699.5,414.59,-414.59,1699.5,-1.7053e-13,-5.68434e-14)"><stop offset="0" style="stop-color:rgb(228,62,150);stop-opacity:1"/><stop offset="1" style="stop-color:rgb(70,167,222);stop-opacity:1"/></linearGradient>
        <linearGradient id="_Linear23" x1="0" y1="0" x2="1" y2="0" gradientUnits="userSpaceOnUse" gradientTransform="matrix(1699.5,414.59,-414.59,1699.5,-1.7053e-13,-5.68434e-14)"><stop offset="0" style="stop-color:rgb(228,62,150);stop-opacity:1"/><stop offset="1" style="stop-color:rgb(70,167,222);stop-opacity:1"/></linearGradient>
        <linearGradient id="_Linear24" x1="0" y1="0" x2="1" y2="0" gradientUnits="userSpaceOnUse" gradientTransform="matrix(1699.5,414.59,-414.59,1699.5,-1.7053e-13,-5.68434e-14)"><stop offset="0" style="stop-color:rgb(228,62,150);stop-opacity:1"/><stop offset="1" style="stop-color:rgb(70,167,222);stop-opacity:1"/></linearGradient>
        <linearGradient id="_Linear25" x1="0" y1="0" x2="1" y2="0" gradientUnits="userSpaceOnUse" gradientTransform="matrix(1699.5,414.59,-414.59,1699.5,-1.42109e-13,0)"><stop offset="0" style="stop-color:rgb(228,62,150);stop-opacity:1"/><stop offset="1" style="stop-color:rgb(70,167,222);stop-opacity:1"/></linearGradient>
        <linearGradient id="_Linear26" x1="0" y1="0" x2="1" y2="0" gradientUnits="userSpaceOnUse" gradientTransform="matrix(1699.5,414.59,-414.59,1699.5,-1.7053e-13,1.13687e-13)"><stop offset="0" style="stop-color:rgb(228,62,150);stop-opacity:1"/><stop offset="1" style="stop-color:rgb(70,167,222);stop-opacity:1"/></linearGradient>
        <linearGradient id="_Linear27" x1="0" y1="0" x2="1" y2="0" gradientUnits="userSpaceOnUse" gradientTransform="matrix(1699.5,414.59,-414.59,1699.5,-1.42109e-13,0)"><stop offset="0" style="stop-color:rgb(228,62,150);stop-opacity:1"/><stop offset="1" style="stop-color:rgb(70,167,222);stop-opacity:1"/></linearGradient>
    </defs>
</svg>
